<svg width="157" height="152" viewBox="0 0 157 152" fill="none" xmlns="http://www.w3.org/2000/svg">
<g clip-path="url(#clip0_1_46)">
<path d="M77.715 31.7933C77.715 31.7933 62.2882 46.74 46.8596 46.74C46.8596 46.74 44.9317 89.7117 78.0488 106.527C110.498 89.7117 108.57 46.74 108.57 46.74C108.568 46.74 108.568 46.74 108.567 46.74C91.2139 46.74 77.715 31.7933 77.715 31.7933Z" fill="black"/>
<path d="M100.629 53.3969C90.7237 51.3754 82.5742 46.0058 77.5124 41.8954C72.3019 45.8918 64.0714 51.1717 54.8026 53.2848C55.6941 64.08 59.7834 86.2403 78.0045 97.8408C95.7354 86.274 99.7494 64.2407 100.629 53.3969Z" fill="#1D7BFF"/>
<path d="M77.5124 41.8936C72.3019 45.8899 64.0714 51.1698 54.8026 53.2829C54.9338 54.8654 55.1461 56.7113 55.4471 58.7123C64.4477 56.5058 72.4216 51.3996 77.5104 47.4986C82.4604 51.5192 90.3802 56.7244 99.9925 58.8412C100.29 56.8384 100.498 54.9868 100.627 53.395C90.7237 51.3735 82.5742 46.0039 77.5124 41.8936Z" fill="#004DFD"/>
<path d="M77.715 35.53C77.2032 35.53 76.7123 35.7269 76.3504 36.0773C75.9885 36.4276 75.7852 36.9028 75.7852 37.3984C75.7852 37.8939 75.9885 38.3691 76.3504 38.7195C76.7123 39.0699 77.2032 39.2667 77.715 39.2667C78.2268 39.2667 78.7177 39.0699 79.0796 38.7195C79.4415 38.3691 79.6448 37.8939 79.6448 37.3984C79.6448 36.9028 79.4415 36.4276 79.0796 36.0773C78.7177 35.7269 78.2268 35.53 77.715 35.53ZM104.732 48.6084C104.22 48.6084 103.729 48.8052 103.368 49.1556C103.006 49.506 102.802 49.9812 102.802 50.4767C102.802 50.9722 103.006 51.4474 103.368 51.7978C103.729 52.1482 104.22 52.345 104.732 52.345C105.244 52.345 105.735 52.1482 106.097 51.7978C106.459 51.4474 106.662 50.9722 106.662 50.4767C106.662 49.9812 106.459 49.506 106.097 49.1556C105.735 48.8052 105.244 48.6084 104.732 48.6084ZM77.715 99.0534C77.2032 99.0534 76.7123 99.2502 76.3504 99.6006C75.9885 99.951 75.7852 100.426 75.7852 100.922C75.7852 101.417 75.9885 101.892 76.3504 102.243C76.7123 102.593 77.2032 102.79 77.715 102.79C78.2268 102.79 78.7177 102.593 79.0796 102.243C79.4415 101.892 79.6448 101.417 79.6448 100.922C79.6448 100.426 79.4415 99.951 79.0796 99.6006C78.7177 99.2502 78.2268 99.0534 77.715 99.0534ZM50.6979 48.6084C50.1861 48.6084 49.6953 48.8052 49.3334 49.1556C48.9714 49.506 48.7681 49.9812 48.7681 50.4767C48.7681 50.9722 48.9714 51.4474 49.3334 51.7978C49.6953 52.1482 50.1861 52.345 50.6979 52.345C51.2097 52.345 51.7006 52.1482 52.0625 51.7978C52.4244 51.4474 52.6277 50.9722 52.6277 50.4767C52.6277 49.9812 52.4244 49.506 52.0625 49.1556C51.7006 48.8052 51.2097 48.6084 50.6979 48.6084ZM56.4873 76.6334C55.9755 76.6334 55.4846 76.8302 55.1227 77.1806C54.7608 77.531 54.5575 78.0062 54.5575 78.5017C54.5575 78.9972 54.7608 79.4724 55.1227 79.8228C55.4846 80.1732 55.9755 80.37 56.4873 80.37C56.9991 80.37 57.49 80.1732 57.8519 79.8228C58.2138 79.4724 58.4171 78.9972 58.4171 78.5017C58.4171 78.0062 58.2138 77.531 57.8519 77.1806C57.49 76.8302 56.9991 76.6334 56.4873 76.6334ZM98.9427 76.6334C98.4309 76.6334 97.94 76.8302 97.5781 77.1806C97.2162 77.531 97.0129 78.0062 97.0129 78.5017C97.0129 78.9972 97.2162 79.4724 97.5781 79.8228C97.94 80.1732 98.4309 80.37 98.9427 80.37C99.4545 80.37 99.9454 80.1732 100.307 79.8228C100.669 79.4724 100.872 78.9972 100.872 78.5017C100.872 78.0062 100.669 77.531 100.307 77.1806C99.9454 76.8302 99.4545 76.6334 98.9427 76.6334Z" fill="#1DA5FF"/>
<path opacity="0.2" d="M57.3158 54.1378C53.9369 54.1415 51.705 54.4062 51.6865 54.4084C51.6864 54.4084 51.6737 54.4095 51.6737 54.4095C51.4531 54.4342 51.4811 54.754 51.7028 54.7419C51.7028 54.7419 63.9887 54.1771 73.8364 58.0285C74.1878 59.4912 75.1156 61.7332 75.6638 62.9249C74.9176 63.4233 74.1171 63.9291 73.4585 64.7319C72.7671 65.5746 72.2447 66.7375 72.1055 68.5156C71.8233 72.1226 75.0024 75.2802 78.9344 75.3775C82.5805 75.5664 85.0595 75.5924 88.0773 77.1144C89.4867 77.8736 90.7993 79.4342 91.7796 81.3406C92.7605 83.2479 93.4113 85.4982 93.5281 87.6203C93.539 87.8289 93.8541 87.8327 93.8704 87.6245C93.8709 87.618 93.8701 87.6091 93.8706 87.6026C93.9972 85.9777 93.7506 83.4624 92.7495 81.0697C91.911 79.0654 90.5257 77.1573 88.3959 75.9606C91.457 76.774 93.2094 78.2857 94.2168 79.6671C95.3727 81.252 95.5433 82.6626 95.5424 82.6548C95.5667 82.8542 95.8657 82.8496 95.8836 82.6496C95.8836 82.6496 96.0355 80.9205 94.8094 79.0154C93.5832 77.1103 90.9803 75.0278 85.5538 74.2529C84.1792 74.0567 82.4445 73.9059 80.6866 73.9015C80.6857 73.9015 80.6848 73.9015 80.684 73.9015C76.43 73.9563 74.2854 71.5969 73.9516 69.1769C73.7846 67.9669 74.0766 66.7412 74.799 65.7914C75.5214 64.8417 76.671 64.1617 78.255 64.0412H78.2557C80.8566 63.8324 84.0287 65.2011 87.1482 66.6135C87.1451 66.9642 87.177 67.318 87.4405 67.6384C87.6168 67.853 87.9351 68.002 88.2589 68.1509C88.5827 68.2997 88.916 68.4346 89.0482 68.5084C89.3489 68.6763 90.3516 69.3022 90.9427 70.0509C91.0186 70.1471 91.1713 70.1349 91.23 70.028C91.2331 70.0224 91.323 69.9215 91.4415 69.825C91.5601 69.7284 91.7106 69.6184 91.8572 69.5157C92.1503 69.3104 92.4278 69.1344 92.4278 69.1344C92.5722 69.0428 92.5031 68.8243 92.3307 68.8278C92.3307 68.8278 92.2885 68.8301 92.1539 68.8051C92.0193 68.78 91.8052 68.7274 91.5008 68.6167C91.2205 68.5148 90.8858 68.2941 90.6275 68.0946C90.4984 67.9949 90.3873 67.9005 90.3088 67.8299C90.2994 67.8214 90.2955 67.8173 90.2871 67.8096C90.3691 67.7377 90.3803 67.6229 90.3638 67.5507C90.3468 67.4769 90.3138 67.4171 90.2767 67.3589C90.2027 67.2425 90.1086 67.1387 90.0435 67.0753L90.0432 67.0751C90.0527 67.0843 90.024 67.0517 89.995 67.0105C89.9659 66.9692 89.9285 66.9134 89.8865 66.849C89.8023 66.7202 89.6991 66.5564 89.5987 66.395C89.3979 66.0723 89.2167 65.7723 89.1992 65.7437C89.199 65.7433 89.1556 65.6544 89.0713 65.5997C89.0581 65.5911 89.0437 65.5843 89.0285 65.5796C88.9334 65.5498 88.858 65.5568 88.7605 65.5617C88.6629 65.5666 88.5546 65.5778 88.452 65.5905C88.2804 65.6118 88.1739 65.6307 88.1275 65.6385C88.0115 65.579 87.1046 65.0902 86.7713 64.0942C86.7098 63.9115 86.4319 63.9581 86.4369 64.1503C86.4387 64.2157 86.3369 64.4107 86.359 64.7057C85.9561 64.4695 85.6095 64.0941 85.3075 63.3208C85.2521 63.1782 85.0454 63.1767 84.9877 63.3184C84.872 63.6014 84.865 63.8381 84.8885 64.0216C84.5058 63.8465 83.8791 63.4612 83.7426 62.6953C83.7133 62.5314 83.4826 62.5055 83.4158 62.6586C83.3032 62.9168 83.2932 63.1306 83.3121 63.3027C82.5989 63.005 80.6345 62.3089 77.7028 62.2935C77.1369 62.2429 76.6872 61.9674 76.3179 61.5542C75.9485 61.141 75.668 60.5903 75.4693 60.0199C75.2707 59.4495 75.1533 58.86 75.1001 58.3736C75.047 57.8872 75.0694 57.4851 75.1064 57.3698C75.1312 57.293 75.096 57.2099 75.0228 57.1723C75.0228 57.1723 71.4377 55.3372 64.4292 54.5305C61.8014 54.228 59.3519 54.1355 57.3161 54.1378L57.3158 54.1378ZM65.5004 57.772C64.4325 57.7798 63.2862 57.8185 62.0818 57.9018C55.6476 58.3469 49.17 60.5343 49.17 60.5343C48.9628 60.6039 49.0555 60.9062 49.2681 60.8539C49.2681 60.8539 62.4795 57.6273 73.5159 59.5186C73.5257 59.5203 73.5356 59.5211 73.5455 59.5212H73.5459C73.6615 59.5211 73.7439 59.4122 73.7097 59.3049L73.4212 58.3991C73.4023 58.3394 73.3506 58.295 73.2873 58.2841C73.2873 58.2841 70.1274 57.7382 65.5007 57.772C65.5002 57.772 65.4998 57.772 65.4993 57.772L65.5004 57.772ZM73.3454 59.7012C72.2098 59.6965 68.7155 59.8358 63.4671 61.4338C56.8804 63.4392 53.1315 66.2903 53.1315 66.2903C52.9663 66.4174 53.1365 66.6664 53.3208 66.5673C53.3208 66.5673 63.0736 61.2745 74.0568 60.9741C74.1715 60.9709 74.2507 60.861 74.2147 60.755L73.8991 59.8254C73.8772 59.7609 73.8173 59.7158 73.7477 59.7112C73.7477 59.7112 73.6078 59.7023 73.3457 59.7012L73.3454 59.7012ZM80.5266 59.6857C80.3584 59.6881 80.2939 59.9002 80.4337 59.9913H80.434C80.444 59.9978 80.4548 60.0033 80.466 60.0077C83.478 61.1992 86.0904 62.7742 88.1156 64.9393C88.1174 64.9412 88.1193 64.9431 88.1212 64.945L88.1214 64.9452C88.1563 64.9791 88.2045 64.9967 88.2537 64.9936L88.7452 64.9624C88.8846 64.9535 88.9551 64.7948 88.8663 64.6898C88.8663 64.6898 86.0207 61.3342 80.5952 59.6989C80.5947 59.6986 80.5941 59.6982 80.5935 59.698C80.5907 59.697 80.5879 59.696 80.5852 59.6951C80.5836 59.6946 80.582 59.6941 80.5804 59.6936C80.563 59.6882 80.5449 59.6856 80.5266 59.6857L80.5266 59.6857ZM89.103 66.7511C89.2016 66.7704 89.3874 67.1262 89.5581 67.3803C89.5731 67.401 89.5884 67.423 89.6028 67.4404C89.6028 67.4419 89.603 67.443 89.6041 67.4445C89.6234 67.4713 89.6426 67.499 89.6611 67.5213C89.6704 67.5745 89.6859 67.6069 89.5581 67.5814C89.5473 67.5267 89.529 67.5109 89.529 67.5109C89.529 67.5109 89.2205 67.3324 89.1259 67.2057C89.0313 67.0791 89.0147 66.8576 89.0609 66.7736C89.072 66.7548 89.0863 66.748 89.103 66.7511L89.103 66.7511Z" fill="black"/>
<g filter="url(#filter0_f_1_46)">
<path d="M80.2113 83.5186C88.1661 83.5186 94.6148 77.2436 94.6148 69.503C94.6148 61.7624 88.1661 55.4874 80.2113 55.4874C72.2564 55.4874 65.8077 61.7624 65.8077 69.503C65.8077 77.2436 72.2564 83.5186 80.2113 83.5186Z" fill="#153F86"/>
</g>
<path opacity="0.59533" d="M78.9754 82.0536C86.9303 82.0536 93.379 75.7786 93.379 68.038C93.379 60.2973 86.9303 54.0223 78.9754 54.0223C71.0206 54.0223 64.5719 60.2973 64.5719 68.038C64.5719 75.7786 71.0206 82.0536 78.9754 82.0536Z" fill="url(#paint0_linear_1_46)"/>
<path d="M78.9754 82.0536C86.9303 82.0536 93.379 75.7786 93.379 68.038C93.379 60.2973 86.9303 54.0223 78.9754 54.0223C71.0206 54.0223 64.5719 60.2973 64.5719 68.038C64.5719 75.7786 71.0206 82.0536 78.9754 82.0536Z" fill="url(#paint1_linear_1_46)"/>
<path opacity="0.1" d="M93.3653 67.6513C93.2917 71.3185 91.7436 74.8115 89.0534 77.3806C86.3631 79.9498 82.745 81.3903 78.9756 81.3931C75.2258 81.391 71.6246 79.966 68.9375 77.421C66.2505 74.876 64.6893 71.4116 64.5858 67.7642C64.5802 67.8555 64.5755 67.9469 64.5718 68.0383C64.5718 71.7555 66.0893 75.3204 68.7905 77.9489C71.4917 80.5773 75.1553 82.054 78.9753 82.054C82.7954 82.054 86.459 80.5773 89.1601 77.9489C91.8613 75.3204 93.3788 71.7555 93.3788 68.0383C93.376 67.9093 93.3713 67.7802 93.3648 67.6512L93.3653 67.6513Z" fill="black"/>
<path opacity="0.1" d="M78.9754 54.0223C75.1554 54.0223 71.4918 55.499 68.7906 58.1274C66.0894 60.7559 64.5719 64.3208 64.5719 68.038C64.5748 68.1668 64.5794 68.2957 64.586 68.4244C64.6596 64.7572 66.2077 61.2642 68.8979 58.6951C71.5882 56.1259 75.2063 54.6854 78.9757 54.6826C82.7255 54.6847 86.3267 56.1097 89.0138 58.6547C91.7008 61.1997 93.262 64.6641 93.3655 68.3115C93.3711 68.2204 93.3758 68.1292 93.3795 68.038C93.3795 64.3208 91.862 60.7559 89.1608 58.1275C86.4596 55.499 82.796 54.0224 78.976 54.0224L78.9754 54.0223Z" fill="white"/>
<path opacity="0.2" d="M57.3158 54.1378C53.9369 54.1415 51.705 54.4062 51.6865 54.4084C51.6864 54.4084 51.6737 54.4095 51.6737 54.4095C51.4531 54.4342 51.4811 54.754 51.7028 54.7419C51.7028 54.7419 63.9887 54.1771 73.8364 58.0285C74.1878 59.4912 75.1156 61.7332 75.6638 62.9249C74.9176 63.4233 74.1171 63.9291 73.4585 64.7319C72.7671 65.5746 72.2447 66.7375 72.1055 68.5156C71.8233 72.1226 75.0024 75.2802 78.9344 75.3775C82.5805 75.5664 85.0595 75.5924 88.0773 77.1144C89.4867 77.8736 90.7993 79.4342 91.7796 81.3406C92.7605 83.2479 93.4113 85.4982 93.5281 87.6203C93.539 87.8289 93.8541 87.8327 93.8704 87.6245C93.8709 87.618 93.8701 87.6091 93.8706 87.6026C93.9972 85.9777 93.7506 83.4624 92.7495 81.0697C91.911 79.0654 90.5257 77.1573 88.3959 75.9606C91.457 76.774 93.2094 78.2857 94.2168 79.6671C95.3727 81.252 95.5433 82.6626 95.5424 82.6548C95.5667 82.8542 95.8657 82.8496 95.8836 82.6496C95.8836 82.6496 96.0355 80.9205 94.8094 79.0154C93.5832 77.1103 90.9803 75.0278 85.5538 74.2529C84.1792 74.0567 82.4445 73.9059 80.6866 73.9015C80.6857 73.9015 80.6848 73.9015 80.684 73.9015C76.43 73.9563 74.2854 71.5969 73.9516 69.1769C73.7846 67.9669 74.0766 66.7412 74.799 65.7914C75.5214 64.8417 76.671 64.1617 78.255 64.0412H78.2557C80.8566 63.8324 84.0287 65.2011 87.1482 66.6135C87.1451 66.9642 87.177 67.318 87.4405 67.6384C87.6168 67.853 87.9351 68.002 88.2589 68.1509C88.5827 68.2997 88.916 68.4346 89.0482 68.5084C89.3489 68.6763 90.3516 69.3022 90.9427 70.0509C91.0186 70.1471 91.1713 70.1349 91.23 70.028C91.2331 70.0224 91.323 69.9215 91.4415 69.825C91.5601 69.7284 91.7106 69.6184 91.8572 69.5157C92.1503 69.3104 92.4278 69.1344 92.4278 69.1344C92.5722 69.0428 92.5031 68.8243 92.3307 68.8278C92.3307 68.8278 92.2885 68.8301 92.1539 68.8051C92.0193 68.78 91.8052 68.7274 91.5008 68.6167C91.2205 68.5148 90.8858 68.2941 90.6275 68.0946C90.4984 67.9949 90.3873 67.9005 90.3088 67.8299C90.2994 67.8214 90.2955 67.8173 90.2871 67.8096C90.3691 67.7377 90.3803 67.6229 90.3638 67.5507C90.3468 67.4769 90.3138 67.4171 90.2767 67.3589C90.2027 67.2425 90.1086 67.1387 90.0435 67.0753L90.0432 67.0751C90.0527 67.0843 90.024 67.0517 89.995 67.0105C89.9659 66.9692 89.9285 66.9134 89.8865 66.849C89.8023 66.7202 89.6991 66.5564 89.5987 66.395C89.3979 66.0723 89.2167 65.7723 89.1992 65.7437C89.199 65.7433 89.1556 65.6544 89.0713 65.5997C89.0581 65.5911 89.0437 65.5843 89.0285 65.5796C88.9334 65.5498 88.858 65.5568 88.7605 65.5617C88.6629 65.5666 88.5546 65.5778 88.452 65.5905C88.2804 65.6118 88.1739 65.6307 88.1275 65.6385C88.0115 65.579 87.1046 65.0902 86.7713 64.0942C86.7098 63.9115 86.4319 63.9581 86.4369 64.1503C86.4387 64.2157 86.3369 64.4107 86.359 64.7057C85.9561 64.4695 85.6095 64.0941 85.3075 63.3208C85.2521 63.1782 85.0454 63.1767 84.9877 63.3184C84.872 63.6014 84.865 63.8381 84.8885 64.0216C84.5058 63.8465 83.8791 63.4612 83.7426 62.6953C83.7133 62.5314 83.4826 62.5055 83.4158 62.6586C83.3032 62.9168 83.2932 63.1306 83.3121 63.3027C82.5989 63.005 80.6345 62.3089 77.7028 62.2935C77.1369 62.2429 76.6872 61.9674 76.3179 61.5542C75.9485 61.141 75.668 60.5903 75.4693 60.0199C75.2707 59.4495 75.1533 58.86 75.1001 58.3736C75.047 57.8872 75.0694 57.4851 75.1064 57.3698C75.1312 57.293 75.096 57.2099 75.0228 57.1723C75.0228 57.1723 71.4377 55.3372 64.4292 54.5305C61.8014 54.228 59.3519 54.1355 57.3161 54.1378L57.3158 54.1378ZM65.5004 57.772C64.4325 57.7798 63.2862 57.8185 62.0818 57.9018C55.6476 58.3469 49.17 60.5343 49.17 60.5343C48.9628 60.6039 49.0555 60.9062 49.2681 60.8539C49.2681 60.8539 62.4795 57.6273 73.5159 59.5186C73.5257 59.5203 73.5356 59.5211 73.5455 59.5212H73.5459C73.6615 59.5211 73.7439 59.4122 73.7097 59.3049L73.4212 58.3991C73.4023 58.3394 73.3506 58.295 73.2873 58.2841C73.2873 58.2841 70.1274 57.7382 65.5007 57.772C65.5002 57.772 65.4998 57.772 65.4993 57.772L65.5004 57.772ZM73.3454 59.7012C72.2098 59.6965 68.7155 59.8358 63.4671 61.4338C56.8804 63.4392 53.1315 66.2903 53.1315 66.2903C52.9663 66.4174 53.1365 66.6664 53.3208 66.5673C53.3208 66.5673 63.0736 61.2745 74.0568 60.9741C74.1715 60.9709 74.2507 60.861 74.2147 60.755L73.8991 59.8254C73.8772 59.7609 73.8173 59.7158 73.7477 59.7112C73.7477 59.7112 73.6078 59.7023 73.3457 59.7012L73.3454 59.7012ZM80.5266 59.6857C80.3584 59.6881 80.2939 59.9002 80.4337 59.9913H80.434C80.444 59.9978 80.4548 60.0033 80.466 60.0077C83.478 61.1992 86.0904 62.7742 88.1156 64.9393C88.1174 64.9412 88.1193 64.9431 88.1212 64.945L88.1214 64.9452C88.1563 64.9791 88.2045 64.9967 88.2537 64.9936L88.7452 64.9624C88.8846 64.9535 88.9551 64.7948 88.8663 64.6898C88.8663 64.6898 86.0207 61.3342 80.5952 59.6989C80.5947 59.6986 80.5941 59.6982 80.5935 59.698C80.5907 59.697 80.5879 59.696 80.5852 59.6951C80.5836 59.6946 80.582 59.6941 80.5804 59.6936C80.563 59.6882 80.5449 59.6856 80.5266 59.6857L80.5266 59.6857ZM89.103 66.7511C89.2016 66.7704 89.3874 67.1262 89.5581 67.3803C89.5731 67.401 89.5884 67.423 89.6028 67.4404C89.6028 67.4419 89.603 67.443 89.6041 67.4445C89.6234 67.4713 89.6426 67.499 89.6611 67.5213C89.6704 67.5745 89.6859 67.6069 89.5581 67.5814C89.5473 67.5267 89.529 67.5109 89.529 67.5109C89.529 67.5109 89.2205 67.3324 89.1259 67.2057C89.0313 67.0791 89.0147 66.8576 89.0609 66.7736C89.072 66.7548 89.0863 66.748 89.103 66.7511L89.103 66.7511Z" fill="black"/>
<path opacity="0.5" d="M56.3973 52.9632C53.0136 52.967 50.7759 53.2337 50.7759 53.2337C50.7759 53.2337 63.1479 52.6559 73.0588 56.5604C73.3957 58.0268 74.4092 60.469 74.9552 61.6429C73.3931 62.6938 71.6316 63.6822 71.3574 67.187C71.0832 70.6917 74.1797 73.7743 78.0197 73.8694C81.6661 74.0584 84.1854 74.0853 87.2389 75.6259C90.1536 77.1942 92.5437 81.9726 92.7802 86.2702C93.0356 83.0816 91.8058 76.2245 86.0673 74.1421C94.0863 75.5075 94.7933 81.291 94.7935 81.2934C94.7935 81.2934 95.3913 74.6159 84.6096 73.0763C83.2431 72.8812 81.515 72.731 79.7669 72.7267C71.1255 72.8379 70.8105 63.0284 77.3222 62.5332C80.0209 62.3165 83.243 63.7331 86.3931 65.1606C86.3814 65.5413 86.3978 65.8796 86.6548 66.1922C86.9118 66.5047 87.8988 66.8457 88.2143 67.0218C88.5297 67.1979 89.5401 67.8232 90.1593 68.6074C90.2936 68.363 91.4149 67.6527 91.4149 67.6527C91.4149 67.6527 91.1463 67.6583 90.5213 67.4311C89.8963 67.2038 89.1547 66.5161 89.1371 66.4764C89.1196 66.4365 89.1078 66.374 89.2539 66.3456C89.3648 66.2547 89.1137 65.9592 89.0027 65.8513C88.8918 65.7433 88.15 64.5159 88.1326 64.4875C88.1151 64.459 88.1092 64.4306 88.0566 64.3964C87.8931 64.3453 87.1747 64.4703 87.1747 64.4703C87.1747 64.4703 86.0698 63.9423 85.689 62.8038C85.6945 63.0032 85.4995 63.2211 85.689 63.6792C85.1129 63.442 84.618 63.0376 84.2278 62.0381C83.9955 62.6066 84.2278 62.9681 84.2278 62.9681C84.2278 62.9681 82.8714 62.5991 82.6544 61.3818C82.4162 61.9283 82.6544 62.257 82.6544 62.257C82.6544 62.257 80.4427 61.1341 76.7681 61.1178C74.308 60.8982 73.7958 56.6869 74.0237 55.978C74.0237 55.978 70.4752 54.1581 63.49 53.3542C60.8706 53.0527 58.4277 52.9604 56.3974 52.9627L56.3973 52.9632ZM64.5828 56.5974C63.5183 56.6052 62.3755 56.6439 61.175 56.7269C54.7724 57.1698 48.308 59.3505 48.308 59.3505C48.308 59.3505 61.5356 56.112 72.6282 58.0127H72.6284L72.34 57.1069C72.34 57.1069 69.1964 56.5974 64.5833 56.5974L64.5828 56.5974ZM72.4258 58.5266C71.306 58.522 67.8298 58.659 62.5994 60.2515C56.0391 62.2489 52.3185 65.0802 52.3185 65.0802C52.3185 65.0802 62.0963 59.7678 73.1325 59.4659L72.8168 58.5364C72.8168 58.5364 72.684 58.5277 72.4256 58.5267L72.4258 58.5266ZM79.6102 58.511C82.6397 59.7093 85.2765 61.297 87.3236 63.4854L87.3238 63.4856L87.8153 63.4544C87.8153 63.4544 84.9995 60.1303 79.6102 58.511L79.6102 58.511ZM88.1845 65.4094C88.2831 65.4287 88.4691 65.7845 88.6398 66.0386C88.6548 66.0593 88.6701 66.0812 88.6845 66.0986C88.6847 66.1001 88.6848 66.1012 88.6852 66.1027C88.7045 66.1295 88.7239 66.1573 88.7423 66.1796C88.7517 66.2328 88.7672 66.2652 88.6394 66.2396C88.6286 66.185 88.6101 66.1692 88.6101 66.1692C88.6101 66.1692 88.3017 65.9906 88.2071 65.8639C88.1125 65.7373 88.0958 65.5158 88.1419 65.4318C88.1531 65.4128 88.1676 65.4061 88.1846 65.4094L88.1845 65.4094Z" fill="white"/>
<path d="M56.3973 52.9632C53.0136 52.967 50.7759 53.2337 50.7759 53.2337C50.7759 53.2337 63.1479 52.6559 73.0588 56.5604C73.3957 58.0268 74.4092 60.469 74.9552 61.6429C73.3931 62.6938 71.6316 63.6822 71.3574 67.187C71.0832 70.6917 74.1797 73.7743 78.0197 73.8694C81.6661 74.0584 84.1854 74.0853 87.2389 75.6259C90.1536 77.1942 92.5437 81.9726 92.7802 86.2702C93.0356 83.0816 91.8058 76.2245 86.0673 74.1421C94.0863 75.5075 94.7933 81.291 94.7935 81.2934C94.7935 81.2934 95.3913 74.6159 84.6096 73.0763C83.2431 72.8812 81.515 72.731 79.7669 72.7267C71.1255 72.8379 70.8105 63.0284 77.3222 62.5332C80.0209 62.3165 83.243 63.7331 86.3931 65.1606C86.3814 65.5413 86.3978 65.8796 86.6548 66.1922C86.9118 66.5047 87.8988 66.8457 88.2143 67.0218C88.5297 67.1979 89.5401 67.8232 90.1593 68.6074C90.2936 68.363 91.4149 67.6527 91.4149 67.6527C91.4149 67.6527 91.1463 67.6583 90.5213 67.4311C89.8963 67.2038 89.1547 66.5161 89.1371 66.4764C89.1196 66.4365 89.1078 66.374 89.2539 66.3456C89.3648 66.2547 89.1137 65.9592 89.0027 65.8513C88.8918 65.7433 88.15 64.5159 88.1326 64.4875C88.1151 64.459 88.1092 64.4306 88.0566 64.3964C87.8931 64.3453 87.1747 64.4703 87.1747 64.4703C87.1747 64.4703 86.0698 63.9423 85.689 62.8038C85.6945 63.0032 85.4995 63.2211 85.689 63.6792C85.1129 63.442 84.618 63.0376 84.2278 62.0381C83.9955 62.6066 84.2278 62.9681 84.2278 62.9681C84.2278 62.9681 82.8714 62.5991 82.6544 61.3818C82.4162 61.9283 82.6544 62.257 82.6544 62.257C82.6544 62.257 80.4427 61.1341 76.7681 61.1178C74.308 60.8982 73.7958 56.6869 74.0237 55.978C74.0237 55.978 70.4752 54.1581 63.49 53.3542C60.8706 53.0527 58.4277 52.9604 56.3974 52.9627L56.3973 52.9632ZM64.5828 56.5974C63.5183 56.6052 62.3755 56.6439 61.175 56.7269C54.7724 57.1698 48.308 59.3505 48.308 59.3505C48.308 59.3505 61.5356 56.112 72.6282 58.0127H72.6284L72.34 57.1069C72.34 57.1069 69.1964 56.5974 64.5833 56.5974L64.5828 56.5974ZM72.4258 58.5266C71.306 58.522 67.8298 58.659 62.5994 60.2515C56.0391 62.2489 52.3185 65.0802 52.3185 65.0802C52.3185 65.0802 62.0963 59.7678 73.1325 59.4659L72.8168 58.5364C72.8168 58.5364 72.684 58.5277 72.4256 58.5267L72.4258 58.5266ZM79.6102 58.511C82.6397 59.7093 85.2765 61.297 87.3236 63.4854L87.3238 63.4856L87.8153 63.4544C87.8153 63.4544 84.9995 60.1303 79.6102 58.511L79.6102 58.511ZM88.1845 65.4094C88.2831 65.4287 88.4691 65.7845 88.6398 66.0386C88.6548 66.0593 88.6701 66.0812 88.6845 66.0986C88.6847 66.1001 88.6848 66.1012 88.6852 66.1027C88.7045 66.1295 88.7239 66.1573 88.7423 66.1796C88.7517 66.2328 88.7672 66.2652 88.6394 66.2396C88.6286 66.185 88.6101 66.1692 88.6101 66.1692C88.6101 66.1692 88.3017 65.9906 88.2071 65.8639C88.1125 65.7373 88.0958 65.5158 88.1419 65.4318C88.1531 65.4128 88.1676 65.4061 88.1846 65.4094L88.1845 65.4094Z" fill="white"/>
</g>
<path d="M50.627 127.507C50.193 127.507 49.78 127.381 49.388 127.129C48.996 126.877 48.702 126.499 48.506 125.995C48.436 125.813 48.394 125.617 48.38 125.407C48.352 125.211 48.338 125.015 48.338 124.819C48.338 124.623 48.373 124.525 48.443 124.525C48.513 124.525 48.548 124.581 48.548 124.693C48.548 125.351 48.716 125.848 49.052 126.184C49.374 126.52 49.787 126.688 50.291 126.688C50.781 126.688 51.257 126.548 51.719 126.268C52.167 125.988 52.587 125.631 52.979 125.197C53.637 124.483 54.232 123.671 54.764 122.761C55.31 121.837 55.8 120.885 56.234 119.905C56.346 119.667 56.507 119.289 56.717 118.771C56.927 118.239 57.158 117.665 57.41 117.049C57.662 116.419 57.907 115.852 58.145 115.348C58.355 114.872 58.53 114.494 58.67 114.214C58.824 113.934 59.027 113.696 59.279 113.5C59.531 113.304 59.909 113.108 60.413 112.912C60.189 112.926 59.979 112.947 59.783 112.975C59.587 112.989 59.433 112.996 59.321 112.996C58.789 113.01 58.257 113.045 57.725 113.101C57.193 113.157 56.717 113.262 56.297 113.416C55.877 113.556 55.576 113.759 55.394 114.025C55.268 114.207 55.205 114.417 55.205 114.655C55.205 114.893 55.268 115.124 55.394 115.348C55.52 115.572 55.681 115.733 55.877 115.831C55.905 115.859 55.919 115.88 55.919 115.894C55.919 115.922 55.884 115.957 55.814 115.999C55.758 116.027 55.695 116.034 55.625 116.02C55.513 115.95 55.373 115.838 55.205 115.684C55.037 115.516 54.883 115.341 54.743 115.159C54.617 114.977 54.533 114.823 54.491 114.697C54.435 114.529 54.407 114.361 54.407 114.193C54.407 113.857 54.526 113.584 54.764 113.374C55.016 113.164 55.338 113.003 55.73 112.891C56.122 112.779 56.542 112.702 56.99 112.66C57.452 112.604 57.893 112.576 58.313 112.576C58.747 112.562 59.118 112.555 59.426 112.555H61.694C61.722 112.555 61.736 112.562 61.736 112.576C61.736 112.618 61.687 112.681 61.589 112.765C61.505 112.835 61.449 112.87 61.421 112.87C61.029 112.884 60.679 113.031 60.371 113.311C60.077 113.591 59.818 113.913 59.594 114.277C59.384 114.627 59.209 114.949 59.069 115.243C58.985 115.411 58.852 115.684 58.67 116.062C58.502 116.426 58.313 116.846 58.103 117.322C57.907 117.784 57.704 118.246 57.494 118.708C57.298 119.17 57.123 119.569 56.969 119.905C56.605 120.745 56.262 121.529 55.94 122.257C55.632 122.971 55.289 123.643 54.911 124.273C54.533 124.903 54.064 125.519 53.504 126.121C53.154 126.499 52.713 126.821 52.181 127.087C51.635 127.367 51.117 127.507 50.627 127.507ZM60.8356 124.063C60.6956 124.063 60.5766 124.035 60.4786 123.979C60.3806 123.923 60.3316 123.818 60.3316 123.664C60.3316 123.468 60.3806 123.244 60.4786 122.992C60.5766 122.74 60.6886 122.495 60.8146 122.257C60.9406 122.005 61.0526 121.802 61.1506 121.648C60.6606 122.166 60.1496 122.656 59.6176 123.118C59.3516 123.342 59.0576 123.552 58.7356 123.748C58.4136 123.944 58.0706 124.042 57.7066 124.042C57.5666 124.042 57.4686 124 57.4126 123.916C57.3566 123.818 57.3286 123.706 57.3286 123.58C57.3286 123.51 57.3356 123.461 57.3496 123.433C57.4196 122.887 57.5946 122.32 57.8746 121.732C58.1546 121.144 58.4976 120.591 58.9036 120.073C59.3096 119.555 59.7226 119.135 60.1426 118.813C60.6186 118.449 61.1436 118.267 61.7176 118.267H64.1326C64.2026 118.267 64.2376 118.295 64.2376 118.351C64.2376 118.463 64.1746 118.519 64.0486 118.519C63.9086 118.519 63.7686 118.61 63.6286 118.792C63.4886 118.96 63.3836 119.1 63.3136 119.212C63.2156 119.366 63.0616 119.625 62.8516 119.989C62.6416 120.353 62.4246 120.752 62.2006 121.186C61.9906 121.606 61.8086 121.998 61.6546 122.362C61.5006 122.726 61.4236 122.992 61.4236 123.16C61.4236 123.356 61.5216 123.454 61.7176 123.454C61.9276 123.454 62.1656 123.356 62.4316 123.16C62.6976 122.964 62.9636 122.726 63.2296 122.446C63.5096 122.152 63.7616 121.865 63.9856 121.585C64.2236 121.291 64.4126 121.06 64.5526 120.892C64.6366 120.976 64.6296 121.095 64.5316 121.249C64.4476 121.389 64.3706 121.501 64.3006 121.585C64.0206 121.949 63.6986 122.327 63.3346 122.719C62.9706 123.097 62.5716 123.419 62.1376 123.685C61.7176 123.937 61.2836 124.063 60.8356 124.063ZM58.5676 123.328C58.7356 123.328 58.9666 123.209 59.2606 122.971C59.5686 122.719 59.8976 122.411 60.2476 122.047C60.5976 121.669 60.9266 121.277 61.2346 120.871C61.5426 120.451 61.7946 120.073 61.9906 119.737C62.2006 119.387 62.3056 119.121 62.3056 118.939C62.3056 118.785 62.2566 118.68 62.1586 118.624C62.0746 118.568 61.9626 118.54 61.8226 118.54C61.5986 118.54 61.3536 118.624 61.0876 118.792C60.8356 118.946 60.6326 119.1 60.4786 119.254C60.3106 119.408 60.1076 119.653 59.8696 119.989C59.6456 120.311 59.4216 120.668 59.1976 121.06C58.9736 121.452 58.7846 121.83 58.6306 122.194C58.4766 122.558 58.3996 122.852 58.3996 123.076C58.3996 123.244 58.4556 123.328 58.5676 123.328ZM65.8745 124.126C65.6785 124.126 65.5105 124.056 65.3705 123.916C65.2305 123.776 65.1605 123.531 65.1605 123.181C65.1605 122.873 65.1815 122.509 65.2235 122.089C65.2795 121.669 65.3565 121.242 65.4545 120.808C65.5525 120.36 65.6645 119.968 65.7905 119.632C65.5525 119.982 65.2865 120.346 64.9925 120.724C64.6985 121.088 64.4535 121.396 64.2575 121.648C64.2155 121.704 64.1805 121.732 64.1525 121.732C64.1245 121.732 64.1105 121.697 64.1105 121.627C64.1105 121.515 64.1455 121.41 64.2155 121.312C64.5095 120.906 64.8385 120.444 65.2025 119.926C65.5805 119.408 65.9025 118.939 66.1685 118.519C66.3225 118.491 66.5045 118.449 66.7145 118.393C66.9385 118.337 67.0995 118.26 67.1975 118.162C67.2675 118.12 67.3095 118.099 67.3235 118.099C67.3655 118.099 67.3865 118.127 67.3865 118.183C67.3865 118.225 67.3655 118.274 67.3235 118.33C67.1975 118.512 67.0575 118.792 66.9035 119.17C66.7635 119.548 66.6165 119.968 66.4625 120.43C66.3225 120.892 66.2035 121.347 66.1055 121.795C66.0215 122.229 65.9795 122.6 65.9795 122.908C65.9795 123.132 66.0145 123.293 66.0845 123.391C66.1545 123.475 66.2455 123.517 66.3575 123.517C66.5115 123.517 66.6935 123.44 66.9035 123.286C67.1275 123.132 67.3165 122.971 67.4705 122.803C67.6665 122.593 67.8835 122.313 68.1215 121.963C68.3735 121.613 68.6045 121.242 68.8145 120.85C69.0385 120.458 69.2065 120.101 69.3185 119.779C69.4025 119.555 69.4585 119.366 69.4865 119.212C69.5145 119.044 69.5285 118.911 69.5285 118.813C69.5285 118.645 69.5075 118.526 69.4655 118.456C69.4235 118.386 69.3885 118.344 69.3605 118.33C69.2765 118.302 69.2345 118.267 69.2345 118.225C69.2345 118.197 69.2625 118.176 69.3185 118.162C69.3745 118.134 69.4305 118.134 69.4865 118.162C69.6685 118.218 69.8505 118.302 70.0325 118.414C70.2145 118.512 70.3055 118.708 70.3055 119.002C70.3055 119.072 70.2985 119.156 70.2845 119.254C70.2705 119.338 70.2425 119.436 70.2005 119.548C70.1165 119.772 69.9415 120.087 69.6755 120.493C69.4235 120.899 69.1295 121.326 68.7935 121.774C68.4575 122.222 68.1215 122.628 67.7855 122.992C67.4495 123.356 67.1555 123.615 66.9035 123.769C66.7355 123.867 66.5605 123.951 66.3785 124.021C66.1965 124.091 66.0285 124.126 65.8745 124.126ZM74.6933 115.978C74.4973 115.978 74.3573 115.915 74.2733 115.789C74.2173 115.719 74.1893 115.628 74.1893 115.516C74.1893 115.292 74.2943 115.11 74.5043 114.97C74.6583 114.886 74.7983 114.844 74.9243 114.844C75.1343 114.844 75.2813 114.907 75.3653 115.033C75.4213 115.103 75.4493 115.194 75.4493 115.306C75.4493 115.53 75.3373 115.712 75.1133 115.852C74.9873 115.936 74.8473 115.978 74.6933 115.978ZM71.0393 124.063C70.8993 124.063 70.7803 124.035 70.6823 123.979C70.5983 123.923 70.5563 123.818 70.5563 123.664C70.5563 123.468 70.6053 123.237 70.7033 122.971C70.8153 122.705 70.9343 122.439 71.0603 122.173C71.2003 121.907 71.3053 121.69 71.3753 121.522C71.4733 121.326 71.5923 121.074 71.7323 120.766C71.8863 120.444 72.0263 120.143 72.1523 119.863C72.2923 119.569 72.3903 119.366 72.4463 119.254C72.2503 119.464 72.0123 119.73 71.7323 120.052C71.4663 120.36 71.2143 120.661 70.9763 120.955C70.7383 121.249 70.5563 121.48 70.4303 121.648C70.3883 121.704 70.3533 121.732 70.3253 121.732C70.2973 121.732 70.2833 121.697 70.2833 121.627C70.2833 121.515 70.3183 121.41 70.3883 121.312C70.6543 120.976 70.9483 120.598 71.2703 120.178C71.6063 119.758 71.9073 119.373 72.1733 119.023C72.4393 118.659 72.6073 118.421 72.6773 118.309C72.8313 118.281 73.0553 118.239 73.3493 118.183C73.6573 118.127 73.8673 118.05 73.9793 117.952C74.0213 117.91 74.0633 117.889 74.1053 117.889C74.1333 117.889 74.1473 117.917 74.1473 117.973C74.1613 118.015 74.1473 118.064 74.1053 118.12C74.0213 118.218 73.8743 118.456 73.6643 118.834C73.4543 119.212 73.2303 119.632 72.9923 120.094C72.7683 120.542 72.5583 120.948 72.3623 121.312C72.1663 121.69 71.9983 122.054 71.8583 122.404C71.7183 122.754 71.6483 123.006 71.6483 123.16C71.6483 123.356 71.7463 123.454 71.9423 123.454C72.1243 123.454 72.3553 123.342 72.6353 123.118C72.9293 122.894 73.2233 122.628 73.5173 122.32C73.8113 121.998 74.0703 121.704 74.2943 121.438C74.3643 121.354 74.4483 121.256 74.5463 121.144C74.6583 121.018 74.7283 120.941 74.7563 120.913C74.7843 120.941 74.7983 120.99 74.7983 121.06C74.7843 121.158 74.7493 121.256 74.6933 121.354C74.6373 121.438 74.5813 121.515 74.5253 121.585C74.2313 121.949 73.9093 122.327 73.5593 122.719C73.2093 123.097 72.8243 123.419 72.4043 123.685C71.9843 123.937 71.5293 124.063 71.0393 124.063ZM75.5624 124.168C74.9884 124.168 74.5894 124.056 74.3654 123.832C74.1414 123.608 74.0294 123.335 74.0294 123.013C74.0294 122.607 74.1344 122.173 74.3444 121.711C74.5684 121.249 74.7784 120.857 74.9744 120.535C75.1984 120.199 75.4994 119.849 75.8774 119.485C76.2554 119.121 76.6684 118.813 77.1164 118.561C77.5644 118.309 77.9984 118.183 78.4184 118.183C78.7824 118.183 79.0344 118.274 79.1744 118.456C79.3144 118.624 79.3844 118.827 79.3844 119.065C79.3844 119.499 79.2514 119.856 78.9854 120.136C78.7334 120.416 78.4184 120.647 78.0404 120.829C77.6624 120.997 77.2984 121.137 76.9484 121.249C76.7384 121.305 76.4934 121.361 76.2134 121.417C75.9334 121.473 75.6674 121.501 75.4154 121.501C75.3174 121.753 75.2404 121.998 75.1844 122.236C75.1284 122.474 75.1004 122.691 75.1004 122.887C75.1004 123.125 75.1564 123.321 75.2684 123.475C75.3944 123.629 75.5974 123.706 75.8774 123.706C75.9894 123.706 76.1224 123.692 76.2764 123.664C76.4304 123.636 76.5984 123.594 76.7804 123.538C77.2004 123.398 77.6134 123.174 78.0194 122.866C78.4254 122.558 78.7964 122.229 79.1324 121.879C79.4824 121.515 79.7484 121.214 79.9304 120.976C79.9724 121.018 79.9934 121.067 79.9934 121.123C79.9934 121.193 79.9444 121.305 79.8464 121.459C79.5664 121.851 79.2024 122.257 78.7544 122.677C78.3064 123.097 77.8094 123.454 77.2634 123.748C76.7174 124.028 76.1504 124.168 75.5624 124.168ZM75.5834 121.081C75.7654 121.095 75.9684 121.095 76.1924 121.081C76.4304 121.053 76.6614 121.004 76.8854 120.934C77.4594 120.766 77.8724 120.5 78.1244 120.136C78.3904 119.758 78.5234 119.422 78.5234 119.128C78.5234 118.96 78.4884 118.82 78.4184 118.708C78.3484 118.596 78.2364 118.54 78.0824 118.54C77.6764 118.54 77.3124 118.694 76.9904 119.002C76.6684 119.296 76.3884 119.639 76.1504 120.031C75.9124 120.423 75.7234 120.773 75.5834 121.081ZM79.7209 124.294C79.6649 124.294 79.6649 124.238 79.7209 124.126C79.7909 124 79.8539 123.86 79.9099 123.706C79.9799 123.552 80.0499 123.384 80.1199 123.202C80.2599 122.866 80.4139 122.488 80.5819 122.068C80.7499 121.648 80.9109 121.242 81.0649 120.85C81.2189 120.444 81.3519 120.101 81.4639 119.821C81.5899 119.527 81.6739 119.338 81.7159 119.254C81.5199 119.464 81.2819 119.73 81.0019 120.052C80.7359 120.36 80.4839 120.661 80.2459 120.955C80.0079 121.249 79.8259 121.48 79.6999 121.648C79.6579 121.704 79.6229 121.732 79.5949 121.732C79.5669 121.732 79.5529 121.697 79.5529 121.627C79.5529 121.515 79.5879 121.41 79.6579 121.312C79.9239 120.976 80.2179 120.598 80.5399 120.178C80.8759 119.758 81.1769 119.373 81.4429 119.023C81.7089 118.659 81.8769 118.421 81.9469 118.309C82.1009 118.281 82.3249 118.239 82.6189 118.183C82.9269 118.127 83.1369 118.05 83.2489 117.952C83.2909 117.91 83.3329 117.889 83.3749 117.889C83.4029 117.889 83.4169 117.917 83.4169 117.973C83.4309 118.015 83.4169 118.064 83.3749 118.12C83.2909 118.204 83.1649 118.386 82.9969 118.666C82.8429 118.946 82.6679 119.268 82.4719 119.632C82.2759 119.996 82.0869 120.346 81.9049 120.682C82.0449 120.472 82.2269 120.227 82.4509 119.947C82.6889 119.653 82.9479 119.373 83.2279 119.107C83.5079 118.827 83.7879 118.596 84.0679 118.414C84.3619 118.232 84.6349 118.141 84.8869 118.141C85.0689 118.141 85.2229 118.183 85.3489 118.267C85.4749 118.337 85.5729 118.47 85.6429 118.666C85.6849 118.764 85.7059 118.876 85.7059 119.002C85.7059 119.24 85.6429 119.471 85.5169 119.695C85.4049 119.905 85.3209 120.066 85.2649 120.178C85.2509 120.22 85.2019 120.262 85.1179 120.304C85.0339 120.332 84.9989 120.318 85.0129 120.262C85.0269 120.192 85.0339 120.122 85.0339 120.052C85.0479 119.982 85.0549 119.905 85.0549 119.821C85.0549 119.583 85.0059 119.366 84.9079 119.17C84.8239 118.974 84.6629 118.876 84.4249 118.876C84.2009 118.876 83.9279 119.016 83.6059 119.296C83.2839 119.576 82.9619 119.898 82.6399 120.262C82.2339 120.738 81.9119 121.193 81.6739 121.627C81.4359 122.047 81.2399 122.46 81.0859 122.866C81.0019 123.09 80.9179 123.314 80.8339 123.538C80.7499 123.748 80.6869 123.916 80.6449 124.042C80.4629 124.056 80.2809 124.098 80.0989 124.168C79.9169 124.252 79.7909 124.294 79.7209 124.294ZM93.3584 124.609C92.6164 124.609 91.9024 124.497 91.2164 124.273C90.5444 124.063 89.9984 123.706 89.5784 123.202C89.1584 122.698 88.9484 122.019 88.9484 121.165C88.9484 120.255 89.1234 119.366 89.4734 118.498C89.8234 117.63 90.2924 116.825 90.8804 116.083C91.4684 115.327 92.1264 114.676 92.8544 114.13C93.4984 113.64 94.2404 113.241 95.0804 112.933C95.9344 112.625 96.7814 112.471 97.6214 112.471C97.9714 112.471 98.3004 112.499 98.6084 112.555C98.9164 112.597 99.2314 112.695 99.5534 112.849C99.8334 112.975 100.057 113.136 100.225 113.332C100.393 113.514 100.477 113.724 100.477 113.962C100.477 113.99 100.477 114.025 100.477 114.067C100.477 114.109 100.47 114.144 100.456 114.172C100.4 114.396 100.267 114.655 100.057 114.949C99.8614 115.229 99.7074 115.523 99.5954 115.831C99.5814 115.887 99.5044 115.936 99.3644 115.978C99.2244 116.006 99.1684 115.992 99.1964 115.936C99.3084 115.754 99.3924 115.53 99.4484 115.264C99.5184 114.998 99.5534 114.732 99.5534 114.466C99.5534 114.27 99.5324 114.088 99.4904 113.92C99.4624 113.738 99.4064 113.584 99.3224 113.458C99.1824 113.206 98.9654 113.031 98.6714 112.933C98.3774 112.835 98.0624 112.786 97.7264 112.786C97.4044 112.786 97.0824 112.821 96.7604 112.891C96.4384 112.961 96.1584 113.038 95.9204 113.122C95.1084 113.416 94.3314 113.878 93.5894 114.508C92.9314 115.082 92.3434 115.747 91.8254 116.503C91.3214 117.259 90.9224 118.036 90.6284 118.834C90.3344 119.632 90.1874 120.395 90.1874 121.123C90.1874 121.865 90.3484 122.453 90.6704 122.887C90.9924 123.321 91.4124 123.629 91.9304 123.811C92.4484 123.993 93.0084 124.084 93.6104 124.084C94.1424 124.084 94.6674 124.028 95.1854 123.916C95.7174 123.804 96.2004 123.664 96.6344 123.496C97.3764 123.216 98.0414 122.873 98.6294 122.467C99.2314 122.061 99.7914 121.536 100.309 120.892C100.379 120.822 100.428 120.787 100.456 120.787C100.498 120.787 100.519 120.815 100.519 120.871C100.519 120.983 100.463 121.116 100.351 121.27C99.8754 121.914 99.3364 122.453 98.7344 122.887C98.1324 123.321 97.4884 123.678 96.8024 123.958C96.3404 124.14 95.8014 124.294 95.1854 124.42C94.5834 124.546 93.9744 124.609 93.3584 124.609ZM100.695 124.126C100.555 124.126 100.408 124.077 100.254 123.979C100.114 123.867 100.002 123.762 99.9176 123.664C99.9036 123.636 99.9596 123.58 100.086 123.496C100.212 123.398 100.345 123.307 100.485 123.223C100.639 123.139 100.723 123.104 100.737 123.118C100.849 123.174 100.961 123.237 101.073 123.307C101.185 123.363 101.304 123.384 101.43 123.37H101.514C101.584 123.37 101.619 123.391 101.619 123.433C101.619 123.475 101.57 123.545 101.472 123.643C101.346 123.741 101.213 123.846 101.073 123.958C100.947 124.07 100.821 124.126 100.695 124.126Z" fill="black"/>
<defs>
<filter id="filter0_f_1_46" x="64.1635" y="53.8431" width="32.0956" height="31.3198" filterUnits="userSpaceOnUse" color-interpolation-filters="sRGB">
<feFlood flood-opacity="0" result="BackgroundImageFix"/>
<feBlend mode="normal" in="SourceGraphic" in2="BackgroundImageFix" result="shape"/>
<feGaussianBlur stdDeviation="0.82214" result="effect1_foregroundBlur_1_46"/>
</filter>
<linearGradient id="paint0_linear_1_46" x1="65.54" y1="55.5544" x2="82.8357" y2="72.7508" gradientUnits="userSpaceOnUse">
<stop stop-color="#23BAC2"/>
<stop offset="1" stop-color="#2777FF"/>
</linearGradient>
<linearGradient id="paint1_linear_1_46" x1="65.54" y1="55.5544" x2="82.8357" y2="72.7508" gradientUnits="userSpaceOnUse">
<stop stop-color="#23BAC2"/>
<stop offset="1" stop-color="#2777FF"/>
</linearGradient>
<clipPath id="clip0_1_46">
<rect width="157" height="152" fill="white"/>
</clipPath>
</defs>
</svg>
